<?xml version="1.0" encoding="utf-8"?>
<!-- Generator: Adobe Illustrator 23.0.6, SVG Export Plug-In . SVG Version: 6.00 Build 0)  -->
<svg version="1.1" id="图层_1" xmlns="http://www.w3.org/2000/svg" xmlns:xlink="http://www.w3.org/1999/xlink" x="0px" y="0px"
	 viewBox="0 0 200 200" style="enable-background:new 0 0 200 200;" xml:space="preserve">
<style type="text/css">
	.st0{fill:#FFFFFF;}
</style>
<path class="st0" d="M154.9,30.5L53.7,109.3c-4.1,3.2-10,2.4-13.2-1.6c-3.2-4.1-2.4-10,1.6-13.2l101.3-78.8c4.1-3.2,10-2.4,13.2,1.6
	S159,27.3,154.9,30.5z"/>
<path class="st0" d="M144.1,187.4L41.9,110c-4.1-3.1-5-9-1.9-13.1c3.1-4.1,9-5,13.1-1.9c0,0,0,0,0,0l102.3,77.4
	c4.1,3.1,4.9,9,1.8,13.1C154.1,189.7,148.3,190.5,144.1,187.4L144.1,187.4L144.1,187.4z"/>
</svg>
