<?xml version="1.0" standalone="no"?><!DOCTYPE svg PUBLIC "-//W3C//DTD SVG 1.1//EN" "http://www.w3.org/Graphics/SVG/1.1/DTD/svg11.dtd"><svg t="1567070806616" class="icon" viewBox="0 0 1280 1024" version="1.1" xmlns="http://www.w3.org/2000/svg" p-id="4203" xmlns:xlink="http://www.w3.org/1999/xlink" width="250" height="200"><defs><style type="text/css"></style></defs><path d="M354.304 29.184h-62.976c-75.605333 0-115.541333 57.429333-138.581333 140.117333L11.52 861.696a38.4 38.4 0 0 0-0.341333 4.778667c0 78.762667 62.208 142.762667 138.581333 142.762666h982.869333c76.373333 0 138.581333-64 138.581334-142.762666l-0.256-4.778667-130.730667-692.394667C1121.621333 78.506667 1077.248 29.184 1001.642667 29.184H354.218667zM221.696 171.861333c16.213333-43.776 31.232-71.68 69.632-71.68h710.314667c38.4 0 56.064 26.538667 68.437333 71.68 0.426667 1.536 0.853333 2.304 1.536 4.864l96.512 515.84H114.346667l107.434666-520.704z m910.933333 766.293334H149.76a70.656 70.656 0 0 1-69.546667-69.461334l24.576-105.130666H1177.6l24.576 105.130666a70.656 70.656 0 0 1-69.546667 69.461334z" fill="#ffffff" p-id="4204"></path><path d="M805.802667 883.797333h43.178666a30.464 30.464 0 0 0 29.952-30.890666c0-17.066667-13.397333-30.890667-29.952-30.890667h-43.178666a30.378667 30.378667 0 0 0-29.866667 30.890667c0 17.066667 13.312 30.890667 29.866667 30.890666z m153.856-14.250666h23.210666c8.874667 0 16.213333-7.424 16.213334-16.64a16.469333 16.469333 0 0 0-16.213334-16.64h-23.210666a16.469333 16.469333 0 0 0-16.213334 16.64c0 9.216 7.338667 16.64 16.213334 16.64z m-327.509334 14.250666h43.093334c16.554667 0 29.952-13.824 29.952-30.890666 0-17.066667-13.397333-30.890667-29.866667-30.890667h-43.178667a30.464 30.464 0 0 0-29.952 30.890667c0 17.066667 13.397333 30.890667 29.952 30.890666z m227.669334-436.053333c0 8.533333-6.656 15.36-14.933334 15.36H501.418667a15.189333 15.189333 0 0 1-14.933334-15.36l10.496-48.981333c0-8.533333 6.741333-15.36 15.018667-15.36h322.304c8.277333 0 15.018667 6.826667 15.018667 15.36l10.496 48.981333z" fill="#ffffff" p-id="4205"></path></svg>