<svg xmlns="http://www.w3.org/2000/svg" width="545" height="108" viewBox="0 0 545 108">
  <g id="组_95" data-name="组 95" transform="translate(-15.143)">
    <g id="组_58" data-name="组 58" transform="translate(14.735)">
      <rect id="矩形_10" data-name="矩形 10" width="5" height="10" rx="2" transform="translate(0.408)" fill="#4a577b"/>
      <rect id="矩形_10-2" data-name="矩形 10" width="6" height="16" rx="2" transform="translate(15.408)" fill="#4a577b"/>
      <rect id="矩形_10-3" data-name="矩形 10" width="6" height="22" rx="2" transform="translate(32.408)" fill="#4a577b"/>
      <rect id="矩形_10-4" data-name="矩形 10" width="6" height="31" rx="2" transform="translate(48.408)" fill="#4a577b"/>
      <rect id="矩形_10-5" data-name="矩形 10" width="6" height="25" rx="2" transform="translate(64.408)" fill="#4a577b"/>
      <rect id="矩形_10-6" data-name="矩形 10" width="6" height="27" rx="2" transform="translate(80.408)" fill="#4a577b"/>
      <rect id="矩形_10-7" data-name="矩形 10" width="6" height="25" rx="2" transform="translate(97.408)" fill="#4a577b"/>
      <rect id="矩形_10-8" data-name="矩形 10" width="5" height="22" rx="2" transform="translate(113.408)" fill="#4a577b"/>
      <rect id="矩形_10-9" data-name="矩形 10" width="6" height="19" rx="2" transform="translate(129.408)" fill="#4a577b"/>
      <rect id="矩形_10-10" data-name="矩形 10" width="6" height="17" rx="2" transform="translate(145.408)" fill="#4a577b"/>
      <rect id="矩形_10-11" data-name="矩形 10" width="6" height="19" rx="2" transform="translate(162.408)" fill="#4a577b"/>
      <rect id="矩形_10-12" data-name="矩形 10" width="6" height="14" rx="2" transform="translate(177.408)" fill="#4a577b"/>
    </g>
    <g id="组_59" data-name="组 59" transform="translate(559.925 108.056) rotate(180)">
      <rect id="矩形_10-13" data-name="矩形 10" width="6" height="10" rx="2" transform="translate(-0.219 0.056)" fill="#4a577b"/>
      <rect id="矩形_10-14" data-name="矩形 10" width="6" height="16" rx="2" transform="translate(15.781 0.056)" fill="#4a577b"/>
      <rect id="矩形_10-15" data-name="矩形 10" width="6" height="22" rx="2" transform="translate(32.781 0.056)" fill="#4a577b"/>
      <rect id="矩形_10-16" data-name="矩形 10" width="6" height="31" rx="2" transform="translate(47.781 0.056)" fill="#4a577b"/>
      <rect id="矩形_10-17" data-name="矩形 10" width="6" height="25" rx="2" transform="translate(64.781 0.056)" fill="#4a577b"/>
      <rect id="矩形_10-18" data-name="矩形 10" width="6" height="26" rx="2" transform="translate(80.781 0.056)" fill="#4a577b"/>
      <rect id="矩形_10-19" data-name="矩形 10" width="6" height="18" rx="2" transform="translate(96.781 0.056)" fill="#4a577b"/>
      <rect id="矩形_10-20" data-name="矩形 10" width="6" height="13" rx="2" transform="translate(112.781 0.056)" fill="#4a577b"/>
      <rect id="矩形_10-21" data-name="矩形 10" width="6" height="9" rx="2" transform="translate(129.781 0.056)" fill="#4a577b"/>
      <rect id="矩形_10-22" data-name="矩形 10" width="5" height="10" rx="2" transform="translate(145.781 0.056)" fill="#4a577b"/>
      <rect id="矩形_10-23" data-name="矩形 10" width="6" height="6" rx="2" transform="translate(161.781 0.056)" fill="#4a577b"/>
      <rect id="矩形_10-24" data-name="矩形 10" width="6" height="4" rx="2" transform="translate(177.781 0.056)" fill="#4a577b"/>
    </g>
  </g>
</svg>
