<svg t="1571450526011" class="icon" viewBox="0 0 1024 1024" version="1.1" xmlns="http://www.w3.org/2000/svg" p-id="8066" width="128" height="128"><path d="M840.9088 785.9712a533.8112 533.8112 0 0 1-47.2576-220.16V455.3728a279.3984 279.3984 0 0 0-196.9152-266.5472v-26.6752a81.92 81.92 0 0 0-163.84 0v26.6752a279.3984 279.3984 0 0 0-196.9152 266.5472v110.1824a534.4256 534.4256 0 0 1-47.2576 220.416 30.72 30.72 0 0 0 28.0064 43.4688h178.0736a122.88 122.88 0 0 0 240.0768 0h178.0224a30.72 30.72 0 0 0 28.0576-43.3152z m-326.0928 78.6944A61.44 61.44 0 0 1 459.2128 829.44h111.2064a61.44 61.44 0 0 1-55.6032 35.2256zM262.2464 768a594.688 594.688 0 0 0 35.1744-202.2912V455.3728a217.8048 217.8048 0 0 1 135.4752-201.3696 213.9648 213.9648 0 0 1 61.44-15.0528v-76.8a20.48 20.48 0 0 1 40.96 0v76.8a213.9648 213.9648 0 0 1 61.44 15.0528A217.8048 217.8048 0 0 1 732.16 455.3728v110.1824a594.6368 594.6368 0 0 0 35.1744 202.4448z" fill="#bfbfbf" p-id="8067"></path></svg>