<svg xmlns="http://www.w3.org/2000/svg" xmlns:xlink="http://www.w3.org/1999/xlink" width="76" height="51" viewBox="0 0 76 51">
  <defs>
    <clipPath id="clip-path">
      <rect width="76" height="51" fill="none"/>
    </clipPath>
  </defs>
  <g id="重复网格_2" data-name="重复网格 2" clip-path="url(#clip-path)">
    <g transform="translate(-344 -962)">
      <g id="组_55" data-name="组 55" transform="translate(-1 357)" opacity="0.2">
        <circle id="椭圆_5" data-name="椭圆 5" cx="3" cy="3" r="3" transform="translate(345 605)" fill="#63719d"/>
        <circle id="椭圆_5-2" data-name="椭圆 5" cx="3" cy="3" r="3" transform="translate(359 605)" fill="#63719d"/>
        <circle id="椭圆_5-3" data-name="椭圆 5" cx="3" cy="3" r="3" transform="translate(373 605)" fill="#63719d"/>
        <circle id="椭圆_5-4" data-name="椭圆 5" cx="3" cy="3" r="3" transform="translate(387 605)" fill="#63719d"/>
        <circle id="椭圆_5-5" data-name="椭圆 5" cx="3" cy="3" r="3" transform="translate(401 605)" fill="#63719d"/>
        <circle id="椭圆_5-6" data-name="椭圆 5" cx="3" cy="3" r="3" transform="translate(345 619)" fill="#63719d"/>
        <circle id="椭圆_5-7" data-name="椭圆 5" cx="3" cy="3" r="3" transform="translate(359 619)" fill="#63719d"/>
        <circle id="椭圆_5-8" data-name="椭圆 5" cx="3" cy="3" r="3" transform="translate(373 619)" fill="#63719d"/>
        <circle id="椭圆_5-9" data-name="椭圆 5" cx="3" cy="3" r="3" transform="translate(387 619)" fill="#63719d"/>
        <circle id="椭圆_5-10" data-name="椭圆 5" cx="3" cy="3" r="3" transform="translate(401 619)" fill="#63719d"/>
        <circle id="椭圆_5-11" data-name="椭圆 5" cx="3" cy="3" r="3" transform="translate(345 633)" fill="#63719d"/>
        <circle id="椭圆_5-12" data-name="椭圆 5" cx="3" cy="3" r="3" transform="translate(359 633)" fill="#63719d"/>
        <circle id="椭圆_5-13" data-name="椭圆 5" cx="3" cy="3" r="3" transform="translate(373 633)" fill="#63719d"/>
        <circle id="椭圆_5-14" data-name="椭圆 5" cx="3" cy="3" r="3" transform="translate(387 633)" fill="#63719d"/>
        <circle id="椭圆_5-15" data-name="椭圆 5" cx="3" cy="3" r="3" transform="translate(401 633)" fill="#63719d"/>
        <circle id="椭圆_5-16" data-name="椭圆 5" cx="3" cy="3" r="3" transform="translate(345 647)" fill="#63719d"/>
        <circle id="椭圆_5-17" data-name="椭圆 5" cx="3" cy="3" r="3" transform="translate(359 647)" fill="#63719d"/>
        <circle id="椭圆_5-18" data-name="椭圆 5" cx="3" cy="3" r="3" transform="translate(373 647)" fill="#63719d"/>
        <circle id="椭圆_5-19" data-name="椭圆 5" cx="3" cy="3" r="3" transform="translate(387 647)" fill="#63719d"/>
        <circle id="椭圆_5-20" data-name="椭圆 5" cx="3" cy="3" r="3" transform="translate(401 647)" fill="#63719d"/>
      </g>
    </g>
    <g transform="translate(-274 -962)">
      <g id="组_55-2" data-name="组 55" transform="translate(-1 357)" opacity="0.2">
        <circle id="椭圆_5-21" data-name="椭圆 5" cx="3" cy="3" r="3" transform="translate(345 605)" fill="#63719d"/>
        <circle id="椭圆_5-22" data-name="椭圆 5" cx="3" cy="3" r="3" transform="translate(359 605)" fill="#63719d"/>
        <circle id="椭圆_5-23" data-name="椭圆 5" cx="3" cy="3" r="3" transform="translate(373 605)" fill="#63719d"/>
        <circle id="椭圆_5-24" data-name="椭圆 5" cx="3" cy="3" r="3" transform="translate(387 605)" fill="#63719d"/>
        <circle id="椭圆_5-25" data-name="椭圆 5" cx="3" cy="3" r="3" transform="translate(401 605)" fill="#63719d"/>
        <circle id="椭圆_5-26" data-name="椭圆 5" cx="3" cy="3" r="3" transform="translate(345 619)" fill="#63719d"/>
        <circle id="椭圆_5-27" data-name="椭圆 5" cx="3" cy="3" r="3" transform="translate(359 619)" fill="#63719d"/>
        <circle id="椭圆_5-28" data-name="椭圆 5" cx="3" cy="3" r="3" transform="translate(373 619)" fill="#63719d"/>
        <circle id="椭圆_5-29" data-name="椭圆 5" cx="3" cy="3" r="3" transform="translate(387 619)" fill="#63719d"/>
        <circle id="椭圆_5-30" data-name="椭圆 5" cx="3" cy="3" r="3" transform="translate(401 619)" fill="#63719d"/>
        <circle id="椭圆_5-31" data-name="椭圆 5" cx="3" cy="3" r="3" transform="translate(345 633)" fill="#63719d"/>
        <circle id="椭圆_5-32" data-name="椭圆 5" cx="3" cy="3" r="3" transform="translate(359 633)" fill="#63719d"/>
        <circle id="椭圆_5-33" data-name="椭圆 5" cx="3" cy="3" r="3" transform="translate(373 633)" fill="#63719d"/>
        <circle id="椭圆_5-34" data-name="椭圆 5" cx="3" cy="3" r="3" transform="translate(387 633)" fill="#63719d"/>
        <circle id="椭圆_5-35" data-name="椭圆 5" cx="3" cy="3" r="3" transform="translate(401 633)" fill="#63719d"/>
        <circle id="椭圆_5-36" data-name="椭圆 5" cx="3" cy="3" r="3" transform="translate(345 647)" fill="#63719d"/>
        <circle id="椭圆_5-37" data-name="椭圆 5" cx="3" cy="3" r="3" transform="translate(359 647)" fill="#63719d"/>
        <circle id="椭圆_5-38" data-name="椭圆 5" cx="3" cy="3" r="3" transform="translate(373 647)" fill="#63719d"/>
        <circle id="椭圆_5-39" data-name="椭圆 5" cx="3" cy="3" r="3" transform="translate(387 647)" fill="#63719d"/>
        <circle id="椭圆_5-40" data-name="椭圆 5" cx="3" cy="3" r="3" transform="translate(401 647)" fill="#63719d"/>
      </g>
    </g>
  </g>
</svg>
