<svg t="1567996919933" class="icon" viewBox="0 0 1024 1024" version="1.1" xmlns="http://www.w3.org/2000/svg" p-id="2065" width="128" height="128"><path d="M864.64 586.23c-31.78-43.41-31.78-102.4 0-145.81 60.52-82.67-0.25-196.38-98.72-196.38-4.65 0-9.4 0.25-14.21 0.78-4.49 0.49-8.96 0.73-13.4 0.73-48.45 0-93-28.54-112.88-73.63-21.64-49.08-67.29-73.63-112.93-73.63s-91.29 24.54-112.93 73.63c-19.88 45.1-64.42 73.63-112.88 73.63-4.44 0-8.91-0.24-13.4-0.73-4.82-0.52-9.55-0.78-14.21-0.78-98.46 0-159.23 113.72-98.72 196.38 31.78 43.41 31.78 102.4 0 145.81-60.52 82.67 0.25 196.38 98.72 196.38 4.65 0 9.4-0.25 14.21-0.78 4.49-0.49 8.96-0.73 13.4-0.73 48.45 0 93 28.54 112.88 73.63 21.64 49.08 67.29 73.63 112.93 73.63s91.29-24.54 112.93-73.63c19.88-45.1 64.42-73.63 112.88-73.63 4.44 0 8.91 0.24 13.4 0.73 4.82 0.52 9.55 0.78 14.21 0.78 98.46 0 159.23-113.72 98.72-196.38z m-74.98-16.57a183.136 183.136 0 0 0 26.56 52.01c20.76 28.36 10.75 55.58 5.48 65.97-5.29 10.43-13.11 19.19-22.6 25.34-9.88 6.39-21.05 9.63-33.19 9.63-2.53 0-5.12-0.14-7.72-0.43a183.5 183.5 0 0 0-19.88-1.08c-72.61 0-138.47 42.95-167.78 109.42-5.42 12.29-13.54 21.85-24.15 28.41-9.96 6.16-21.67 9.42-33.88 9.42s-23.93-3.26-33.88-9.42c-10.6-6.57-18.73-16.12-24.15-28.41-29.31-66.47-95.17-109.42-167.78-109.42-6.61 0-13.3 0.36-19.88 1.08-2.6 0.28-5.2 0.43-7.72 0.43-12.14 0-23.31-3.24-33.2-9.63-9.49-6.14-17.31-14.9-22.6-25.33-5.27-10.39-15.28-37.6 5.49-65.97a183.142 183.142 0 0 0 26.56-52.01c5.88-18.22 8.86-37.17 8.86-56.33 0-19.16-2.98-38.12-8.86-56.33A183.136 183.136 0 0 0 208.78 405c-20.76-28.36-10.75-55.58-5.48-65.97 5.29-10.43 13.11-19.19 22.6-25.34 9.88-6.39 21.05-9.63 33.19-9.63 2.53 0 5.12 0.14 7.72 0.43a183.5 183.5 0 0 0 19.88 1.08c72.61 0 138.47-42.95 167.78-109.42 5.42-12.29 13.54-21.85 24.15-28.41 9.96-6.16 21.67-9.42 33.88-9.42s23.93 3.26 33.88 9.42c10.61 6.57 18.73 16.12 24.15 28.41 29.31 66.47 95.17 109.42 167.78 109.42 6.61 0 13.3-0.36 19.88-1.08 2.6-0.28 5.2-0.43 7.72-0.43 12.14 0 23.31 3.24 33.2 9.63 9.49 6.14 17.31 14.9 22.6 25.33 5.27 10.39 15.28 37.6-5.49 65.97A183.142 183.142 0 0 0 789.66 457a183.135 183.135 0 0 0-8.86 56.33c0 19.16 2.98 38.11 8.86 56.33z" p-id="2066" fill="#bfbfbf"></path><path d="M512.5 365.54c-81.16 0-146.96 65.8-146.96 146.96s65.8 146.96 146.96 146.96 146.96-65.8 146.96-146.96-65.8-146.96-146.96-146.96z m0 233.92c-47.95 0-86.96-39.01-86.96-86.96s39.01-86.96 86.96-86.96 86.96 39.01 86.96 86.96-39.01 86.96-86.96 86.96z" p-id="2067" fill="#bfbfbf"></path></svg>