<svg t="1571450323490" class="icon" viewBox="0 0 1024 1024" version="1.1" xmlns="http://www.w3.org/2000/svg" p-id="7060" width="128" height="128"><path d="M160 448c0-67.2 19.2-131.2 54.4-188.8l-32-32c-12.8-12.8-12.8-32 0-44.8 12.8-12.8 32-12.8 44.8 0l48 48c3.2 0 3.2 3.2 3.2 3.2l556.8 556.8c12.8 12.8 12.8 32 0 44.8-12.8 12.8-32 12.8-44.8 0l-38.4-38.4h-659.2c-19.2 0-32-12.8-32-32s12.8-32 32-32c35.2 0 64-28.8 64-64v-220.8z m64 0v224c0 22.4-6.4 44.8-16 64h483.2l-428.8-428.8c-25.6 41.6-38.4 89.6-38.4 140.8z m576 0c0-160-128-288-288-288-51.2 0-99.2 12.8-144 38.4-16 9.6-35.2 3.2-44.8-12.8-9.6-16-3.2-35.2 12.8-44.8 54.4-32 112-48 176-48 195.2 0 352 156.8 352 352v224c0 19.2-12.8 32-32 32s-32-12.8-32-32v-220.8z m-704 288z m326.4 185.6c-12.8-12.8-12.8-32 0-44.8 12.8-12.8 32-12.8 44.8 0 12.8 12.8 28.8 19.2 44.8 19.2 16 0 32-6.4 44.8-19.2 12.8-12.8 32-12.8 44.8 0 12.8 12.8 12.8 32 0 44.8-22.4 25.6-57.6 38.4-89.6 38.4-35.2 0-67.2-12.8-89.6-38.4z" p-id="7061" fill="#bfbfbf"></path></svg>